<?xml version="1.0" encoding="utf-8"?>
<!-- Generator: Adobe Illustrator 27.8.1, SVG Export Plug-In . SVG Version: 6.00 Build 0)  -->
<svg version="1.1" id="Layer_1" xmlns="http://www.w3.org/2000/svg" xmlns:xlink="http://www.w3.org/1999/xlink" x="0px" y="0px"
	 viewBox="0 0 64 64" style="enable-background:new 0 0 64 64;" xml:space="preserve">
<style type="text/css">
	.st0{fill:#E8D7BA;}
	.st1{fill:#C89D54;}
</style>
<g>
	<g>
		<path class="st0" d="M53.8,61L53.8,61c-2,0-3.7-1.7-3.7-3.7V6.7c0-2,1.7-3.7,3.7-3.7l0,0c2,0,3.7,1.7,3.7,3.7v50.6
			C57.5,59.3,55.8,61,53.8,61z"/>
	</g>
	<g>
		<path class="st0" d="M42.9,61L42.9,61c-2,0-3.7-1.7-3.7-3.7V18.7c0-2,1.7-3.7,3.7-3.7l0,0c2,0,3.7,1.7,3.7,3.7v38.6
			C46.6,59.3,44.9,61,42.9,61z"/>
	</g>
	<g>
		<path class="st1" d="M32,61L32,61c-2,0-3.7-1.7-3.7-3.7V30.7c0-2,1.7-3.7,3.7-3.7h0c2,0,3.7,1.7,3.7,3.7v26.6
			C35.7,59.3,34,61,32,61z"/>
	</g>
	<g>
		<path class="st1" d="M21.1,61L21.1,61c-2,0-3.7-1.7-3.7-3.7V42.7c0-2,1.7-3.7,3.7-3.7l0,0c2,0,3.7,1.7,3.7,3.7v14.6
			C24.8,59.3,23.1,61,21.1,61z"/>
	</g>
	<g>
		<path class="st1" d="M10.2,61L10.2,61c-2,0-3.7-1.7-3.7-3.7v-2.6c0-2,1.7-3.7,3.7-3.7l0,0c2,0,3.7,1.7,3.7,3.7v2.6
			C13.9,59.3,12.2,61,10.2,61z"/>
	</g>
</g>
</svg>
